<svg width="44" height="44" viewBox="0 0 44 44" fill="none" xmlns="http://www.w3.org/2000/svg">
<path d="M44 22C44 9.84973 34.1503 0 22 0C9.84973 0 0 9.84973 0 22C0 32.9808 8.04507 42.0823 18.5625 43.7328V28.3594H12.9766V22H18.5625V17.1531C18.5625 11.6394 21.8469 8.59376 26.8722 8.59376C29.2792 8.59376 31.7969 9.02344 31.7969 9.02344V14.4375H29.0227C26.2898 14.4375 25.4375 16.1334 25.4375 17.8732V22H31.5391L30.5637 28.3594H25.4375V43.7328C35.9549 42.0823 44 32.9808 44 22Z" fill="#1877F2"/>
<path d="M30.5637 28.3594L31.5391 22H25.4375V17.8731C25.4375 16.1334 26.2898 14.4375 29.0227 14.4375H31.7969V9.02343C31.7969 9.02343 29.2792 8.59375 26.8722 8.59375C21.8469 8.59375 18.5625 11.6394 18.5625 17.1531V22H12.9766V28.3594H18.5625V43.7327C19.6997 43.9109 20.849 44.0003 22 44C23.1694 44 24.3174 43.9085 25.4375 43.7327V28.3594H30.5637Z" fill="white"/>
</svg>
