<svg width="44" height="44" viewBox="0 0 44 44" fill="none" xmlns="http://www.w3.org/2000/svg">
<circle opacity="0.7" cx="22" cy="22" r="22" fill="url(#paint0_linear_1_123)"/>
<path d="M28.538 16.6624C28.538 15.9977 27.9993 15.461 27.3371 15.461C26.6748 15.461 26.1356 15.9977 26.1356 16.6624C26.1356 17.3247 26.6748 17.8614 27.3371 17.8614C27.9993 17.8614 28.538 17.3247 28.538 16.6624Z" fill="white"/>
<path d="M30.1387 26.0404C30.0942 27.0155 29.9311 27.5453 29.7957 27.8971C29.6138 28.3637 29.3969 28.6972 29.045 29.0471C28.6971 29.397 28.3635 29.6135 27.897 29.7934C27.5451 29.9308 27.0133 30.0944 26.0383 30.1408C24.9841 30.1873 24.6718 30.1972 21.9986 30.1972C19.328 30.1972 19.0131 30.1873 17.959 30.1408C16.9839 30.0944 16.4547 29.9308 16.1028 29.7934C15.6338 29.6135 15.3027 29.397 14.9528 29.0471C14.6004 28.6972 14.3834 28.3637 14.204 27.8971C14.0686 27.5453 13.9031 27.0155 13.861 26.0404C13.8097 24.9863 13.8003 24.669 13.8003 22.0013C13.8003 19.3281 13.8097 19.0133 13.861 17.9591C13.9031 16.9841 14.0686 16.4548 14.204 16.0999C14.3834 15.6339 14.6004 15.3023 14.9528 14.9524C15.3027 14.603 15.6338 14.386 16.1028 14.2042C16.4547 14.0663 16.9839 13.9052 17.959 13.8587C19.0131 13.8123 19.328 13.8004 21.9986 13.8004C24.6718 13.8004 24.9841 13.8123 26.0383 13.8587C27.0133 13.9052 27.5451 14.0663 27.897 14.2042C28.3635 14.386 28.6971 14.603 29.045 14.9524C29.3969 15.3023 29.6138 15.6339 29.7957 16.0999C29.9311 16.4548 30.0942 16.9841 30.1387 17.9591C30.1876 19.0133 30.1995 19.3281 30.1995 22.0013C30.1995 24.669 30.1876 24.9863 30.1387 26.0404ZM31.9391 17.8771C31.8902 16.8116 31.7221 16.0836 31.4725 15.4496C31.2185 14.7918 30.878 14.2343 30.3206 13.6769C29.7656 13.1219 29.2081 12.7814 28.5503 12.5244C27.9138 12.2773 27.1883 12.1073 26.1223 12.0608C25.0563 12.0094 24.7158 12 21.9986 12C19.284 12 18.941 12.0094 17.875 12.0608C16.8114 12.1073 16.0864 12.2773 15.447 12.5244C14.7916 12.7814 14.2342 13.1219 13.6792 13.6769C13.1217 14.2343 12.7812 14.7918 12.5247 15.4496C12.2776 16.0836 12.1096 16.8116 12.0582 17.8771C12.0117 18.9431 11.9999 19.2841 11.9999 22.0013C11.9999 24.7159 12.0117 25.0564 12.0582 26.1224C12.1096 27.186 12.2776 27.9134 12.5247 28.5505C12.7812 29.2058 13.1217 29.7657 13.6792 30.3207C14.2342 30.8757 14.7916 31.2187 15.447 31.4752C16.0864 31.7223 16.8114 31.8903 17.875 31.9392C18.941 31.9882 19.284 32 21.9986 32C24.7158 32 25.0563 31.9882 26.1223 31.9392C27.1883 31.8903 27.9138 31.7223 28.5503 31.4752C29.2081 31.2187 29.7656 30.8757 30.3206 30.3207C30.878 29.7657 31.2185 29.2058 31.4725 28.5505C31.7221 27.9134 31.8902 27.186 31.9391 26.1224C31.988 25.0564 31.9999 24.7159 31.9999 22.0013C31.9999 19.2841 31.988 18.9431 31.9391 17.8771Z" fill="white"/>
<path d="M21.9984 25.3317C20.1585 25.3317 18.6655 23.8411 18.6655 22.0012C18.6655 20.1583 20.1585 18.6659 21.9984 18.6659C23.8389 18.6659 25.3338 20.1583 25.3338 22.0012C25.3338 23.8411 23.8389 25.3317 21.9984 25.3317ZM21.9984 16.863C19.1622 16.863 16.8651 19.165 16.8651 22.0012C16.8651 24.835 19.1622 27.1346 21.9984 27.1346C24.8347 27.1346 27.1342 24.835 27.1342 22.0012C27.1342 19.165 24.8347 16.863 21.9984 16.863Z" fill="white"/>
<defs>
<linearGradient id="paint0_linear_1_123" x1="0.396874" y1="0.400136" x2="40.368" y2="40.3713" gradientUnits="userSpaceOnUse">
<stop stop-color="#FFD521"/>
<stop offset="0.05" stop-color="#FFD521"/>
<stop offset="0.501119" stop-color="#F50000"/>
<stop offset="0.95" stop-color="#B900B4"/>
<stop offset="0.950079" stop-color="#B900B4"/>
<stop offset="1" stop-color="#B900B4"/>
</linearGradient>
</defs>
</svg>
